<svg width="32" height="32" viewBox="0 0 32 32" fill="none" xmlns="http://www.w3.org/2000/svg">
<circle cx="15.9993" cy="16.0013" r="12.8333" stroke="#718096"/>
<path fill-rule="evenodd" clip-rule="evenodd" d="M8.92406 8.89886C8.9724 8.96783 10.0919 10.5973 11.4119 12.5199C12.7318 14.4425 13.9526 16.2205 14.1248 16.471C14.297 16.7215 14.4379 16.9315 14.4379 16.9377C14.4379 16.9438 14.3738 17.0229 14.2954 17.1133C14.217 17.2038 13.9963 17.4599 13.8049 17.6824C13.6135 17.9049 13.2909 18.28 13.0879 18.5159C12.885 18.7517 12.5279 19.1668 12.2945 19.4383C12.0611 19.7098 11.6413 20.1979 11.3617 20.5229C10.4968 21.5283 10.372 21.6735 9.71363 22.4403C9.36209 22.8498 9.02499 23.2412 8.96453 23.3103C8.90407 23.3793 8.8546 23.4431 8.8546 23.4519C8.8546 23.4623 9.0754 23.468 9.47671 23.468H10.0988L10.7827 22.6709C11.1589 22.2326 11.53 21.8011 11.6073 21.7121C11.7746 21.5196 13.0503 20.0352 13.1576 19.9083C13.1986 19.8597 13.2583 19.7905 13.2901 19.7545C13.3219 19.7186 13.5729 19.427 13.8479 19.1065C14.1228 18.7861 14.3553 18.5161 14.3645 18.5065C14.3737 18.4969 14.5192 18.3276 14.6879 18.1302C14.8566 17.9329 14.9998 17.7714 15.0061 17.7714C15.0125 17.7714 15.8789 19.0258 16.9315 20.559C17.984 22.0922 18.864 23.3738 18.887 23.4069L18.9288 23.4673L21.0627 23.4676C22.8175 23.4679 23.1951 23.4642 23.1884 23.4467C23.1813 23.4281 22.1589 21.9369 19.5361 18.1194C17.6479 15.3712 17.3968 15.0018 17.404 14.9831C17.411 14.9649 17.6682 14.6641 19.359 12.6966C19.649 12.3591 20.0489 11.8936 20.2475 11.6622C20.4461 11.4308 20.6466 11.1977 20.6931 11.1443C20.7396 11.0909 20.984 10.8069 21.2362 10.5132C21.4885 10.2194 21.9172 9.72033 22.1891 9.40406C22.4609 9.08778 22.6933 8.81652 22.7055 8.80122C22.7265 8.77506 22.6909 8.77344 22.0958 8.77344H21.464L21.1829 9.10115C20.8089 9.53729 20.1327 10.3238 19.9407 10.546C19.8559 10.6442 19.7501 10.7677 19.7056 10.8203C19.6611 10.8729 19.5733 10.9746 19.5105 11.0463C19.4476 11.118 19.1311 11.4862 18.807 11.8645C18.483 12.2428 18.2134 12.5559 18.208 12.5604C18.2025 12.5648 18.1331 12.6454 18.0537 12.7394C17.9147 12.9038 17.7733 13.0684 17.1248 13.8205C16.8401 14.1506 16.8255 14.1648 16.8015 14.1345C16.7877 14.117 15.9535 12.9037 14.9477 11.4382L13.1189 8.77378L10.9776 8.7736L8.83618 8.77344L8.92406 8.89886ZM10.5954 9.77263C10.6115 9.79718 11.0115 10.3707 11.4845 11.0472C12.3814 12.3302 15.906 17.3747 18.1727 20.6197C18.897 21.6566 19.4985 22.5142 19.5093 22.5254C19.5248 22.5414 19.7357 22.5449 20.4948 22.5416L21.4606 22.5374L18.9332 18.9204C17.5432 16.9311 15.5306 14.0508 14.4608 12.5199L12.5158 9.73635L11.541 9.73218L10.5662 9.728L10.5954 9.77263Z" fill="#718096"/>
</svg>
